<svg xmlns="http://www.w3.org/2000/svg" width="32" height="21" fill="none"><path fill="#956814" d="M6.5 20a5.5 5.5 0 1 0 0-11 5.5 5.5 0 0 0 0 11Z"/><path fill="#956814" d="M6.5 21A6.508 6.508 0 0 1 0 14.5C0 10.916 2.916 8 6.5 8s6.5 2.916 6.5 6.5S10.084 21 6.5 21Zm0-11A4.505 4.505 0 0 0 2 14.5C2 16.981 4.019 19 6.5 19s4.5-2.019 4.5-4.5S8.981 10 6.5 10ZM23.5 20a5.5 5.5 0 1 0 0-11 5.5 5.5 0 0 0 0 11Z"/><path fill="#956814" d="M23.5 21a6.508 6.508 0 0 1-6.5-6.5c0-3.584 2.916-6.5 6.5-6.5s6.5 2.916 6.5 6.5-2.916 6.5-6.5 6.5Zm0-11a4.505 4.505 0 0 0-4.5 4.5c0 2.481 2.019 4.5 4.5 4.5s4.5-2.019 4.5-4.5-2.019-4.5-4.5-4.5ZM1 15a1 1 0 0 1-1-1C0 6.28 6.28 0 14 0a1 1 0 1 1 0 2C7.383 2 2 7.383 2 14a1 1 0 0 1-1 1Z"/><path fill="#956814" d="M18 15a1 1 0 0 1-1-1c0-7.72 6.28-14 14-14a1 1 0 1 1 0 2c-6.617 0-12 5.383-12 12a1 1 0 0 1-1 1Z"/></svg>