<svg xmlns="http://www.w3.org/2000/svg" width="32" height="32" fill="none"><path fill="#3A2203" d="M16 0c-4.345 0-4.89.028-6.596.098-1.703.078-2.864.344-3.881.74a7.859 7.859 0 0 0-2.837 1.848A7.83 7.83 0 0 0 .843 5.519C.447 6.537.176 7.702.098 9.405.02 11.112 0 11.657 0 16.003c0 4.345.02 4.89.098 6.597.078 1.703.35 2.864.745 3.881a7.83 7.83 0 0 0 1.843 2.833 7.861 7.861 0 0 0 2.837 1.848c1.017.396 2.178.667 3.881.745C11.11 31.985 11.655 32 16 32c4.345 0 4.89-.025 6.596-.093 1.703-.078 2.869-.35 3.886-.745a7.844 7.844 0 0 0 2.832-1.848 7.83 7.83 0 0 0 1.843-2.832c.396-1.018.667-2.18.745-3.882.078-1.707.098-2.252.098-6.598 0-4.345-.02-4.89-.098-6.597-.078-1.703-.35-2.868-.745-3.886a7.83 7.83 0 0 0-1.843-2.833A7.842 7.842 0 0 0 26.482.838c-1.017-.396-2.183-.662-3.886-.74C20.89.02 20.345 0 16 0Zm0 2.882c4.272 0 4.777.025 6.464.093 1.56.07 2.41.334 2.974.554.747.29 1.278.636 1.838 1.196.56.56.905 1.09 1.196 1.837.219.564.482 1.416.553 2.975.077 1.688.093 2.193.093 6.465 0 4.273-.017 4.778-.093 6.465-.07 1.56-.334 2.406-.553 2.97a4.966 4.966 0 0 1-1.196 1.843 4.95 4.95 0 0 1-1.838 1.196c-.563.218-1.415.478-2.974.55-1.687.077-2.192.092-6.464.092s-4.777-.025-6.464-.093c-1.56-.07-2.406-.33-2.97-.549a4.969 4.969 0 0 1-1.842-1.196 4.97 4.97 0 0 1-1.196-1.843c-.219-.564-.477-1.41-.548-2.97-.077-1.687-.094-2.192-.094-6.465 0-4.272.018-4.777.094-6.465.07-1.56.33-2.41.548-2.975a4.95 4.95 0 0 1 1.196-1.837 4.967 4.967 0 0 1 1.843-1.196c.563-.219 1.41-.483 2.97-.554 1.686-.078 2.191-.093 6.463-.093Zm8.541 2.656a1.922 1.922 0 1 0 .002 3.844 1.922 1.922 0 0 0-.002-3.844ZM16 7.783c-4.537 0-8.213 3.682-8.213 8.22A8.212 8.212 0 0 0 16 24.217a8.216 8.216 0 1 0 0-16.434Zm0 2.887a5.331 5.331 0 0 1 5.332 5.333 5.331 5.331 0 1 1-10.664 0A5.331 5.331 0 0 1 16 10.67Z"/></svg>