<svg xmlns="http://www.w3.org/2000/svg" width="32" height="32" fill="none"><g clip-path="url(#a)"><path fill="#3A2203" d="M25.333 0H6.667A6.667 6.667 0 0 0 0 6.667v18.666A6.667 6.667 0 0 0 6.667 32h18.666A6.667 6.667 0 0 0 32 25.333V6.667A6.667 6.667 0 0 0 25.333 0ZM10.667 25.333h-4V10.667h4v14.666Zm-2-16.357a2.343 2.343 0 0 1-2.334-2.352 2.343 2.343 0 0 1 2.334-2.352A2.343 2.343 0 0 1 11 6.624a2.342 2.342 0 0 1-2.333 2.352Zm18 16.357h-4v-7.472c0-4.49-5.334-4.15-5.334 0v7.472h-4V10.667h4v2.353c1.862-3.448 9.334-3.703 9.334 3.301v9.012Z"/></g><defs><clipPath id="a"><path fill="#fff" d="M0 0h32v32H0z"/></clipPath></defs></svg>