<svg xmlns="http://www.w3.org/2000/svg" width="32" height="32" fill="none"><path fill="#3A2203" d="M15.111 24h1.778v-7.111H24V15.11h-7.111V8H15.11v7.111H8v1.778h7.111V24Zm.895 8c-2.213 0-4.293-.42-6.24-1.26-1.948-.84-3.643-1.979-5.083-3.418-1.441-1.44-2.582-3.132-3.422-5.078C.42 20.298 0 18.218 0 16.006c0-2.213.42-4.293 1.26-6.24.84-1.948 1.979-3.643 3.418-5.083C6.118 3.242 7.81 2.1 9.756 1.26 11.702.42 13.781 0 15.994 0c2.212 0 4.293.42 6.24 1.26 1.948.84 3.642 1.979 5.083 3.418 1.441 1.44 2.582 3.132 3.422 5.078.84 1.946 1.261 4.025 1.261 6.238s-.42 4.293-1.26 6.24c-.84 1.948-1.979 3.642-3.418 5.083-1.44 1.441-3.133 2.582-5.078 3.422-1.946.84-4.026 1.261-6.238 1.261ZM16 30.222c3.97 0 7.333-1.378 10.089-4.133 2.755-2.756 4.133-6.119 4.133-10.089 0-3.97-1.378-7.333-4.133-10.089C23.333 3.156 19.97 1.778 16 1.778c-3.97 0-7.333 1.378-10.089 4.133C3.156 8.667 1.778 12.03 1.778 16c0 3.97 1.378 7.333 4.133 10.089C8.667 28.845 12.03 30.222 16 30.222Z"/></svg>